PathFileType	4	(X/Y/Z)	C:\Users\Basilio\Documents\Thesis Gigler\squatting_fais\c3dfiles\077\SJ_pre5\markers_experimental.trc
DataRate	CameraRate	NumFrames	NumMarkers	Units	OrigDataRate	OrigDataStartFrame	OrigNumFrames
200.000000	200.000000	4	60	mm	200.000000	508	1356
Frame#	Time	FHD			LBHD			RBHD			C7			T10			CLAV			LSHO			LUUPA			LMUPA			LDUPA			LLEP			LMEP			LRAD			LUL			LRFIN			RSHO			RUPA1			RMUPA			RDUPA			RLEP			RMEP			RRAD			RUL			RUFIN			LASI			RASI			USACR			LSACR			RSACR			LTHI2			LTHI3			LTHI4			LLFC			LMFC			LTIB1			LTIB2			LTIB3			LTIB4			LLMAL			LHEE			LMT1			LMT2			LMT5			RTHI			RTHI2			RTHI3			RTHI4			RLFC			RMFC			RTIB1			RTIB2			RTIB3			RTIB4			RLMAL			RMMAL			RHEE			RMT1			RMT2			RMT5			LTHI1			
		X1	Y1	Z1	X2	Y2	Z2	X3	Y3	Z3	X4	Y4	Z4	X5	Y5	Z5	X6	Y6	Z6	X7	Y7	Z7	X8	Y8	Z8	X9	Y9	Z9	X10	Y10	Z10	X11	Y11	Z11	X12	Y12	Z12	X13	Y13	Z13	X14	Y14	Z14	X15	Y15	Z15	X16	Y16	Z16	X17	Y17	Z17	X18	Y18	Z18	X19	Y19	Z19	X20	Y20	Z20	X21	Y21	Z21	X22	Y22	Z22	X23	Y23	Z23	X24	Y24	Z24	X25	Y25	Z25	X26	Y26	Z26	X27	Y27	Z27	X28	Y28	Z28	X29	Y29	Z29	X30	Y30	Z30	X31	Y31	Z31	X32	Y32	Z32	X33	Y33	Z33	X34	Y34	Z34	X35	Y35	Z35	X36	Y36	Z36	X37	Y37	Z37	X38	Y38	Z38	X39	Y39	Z39	X40	Y40	Z40	X41	Y41	Z41	X42	Y42	Z42	X43	Y43	Z43	X44	Y44	Z44	X45	Y45	Z45	X46	Y46	Z46	X47	Y47	Z47	X48	Y48	Z48	X49	Y49	Z49	X50	Y50	Z50	X51	Y51	Z51	X52	Y52	Z52	X53	Y53	Z53	X54	Y54	Z54	X55	Y55	Z55	X56	Y56	Z56	X57	Y57	Z57	X58	Y58	Z58	X59	Y59	Z59	X60	Y60	Z60	

509	2.54	61.1700782775879	1190.944213867188	-916.1717529296877	-80.6207962036133	1082.702880859375	-982.8966064453127	-88.33786010742189	1084.765747070313	-838.2796630859377	-142.4664154052735	1031.324584960938	-909.0794067382815	-384.8013610839845	837.889099121094	-915.3135375976565	-34.32111740112305	876.1494140625002	-902.3293457031252	-20.8933277130127	934.5373535156252	-1077.197875976563	-96.22113800048831	870.0526123046877	-1270.129516601563	-106.1781768798828	822.8814697265627	-1273.668823242188	-127.7001037597657	844.068298339844	-1325.3603515625	-172.6672515869141	799.6633300781252	-1364.260375976563	-234.8041076660157	861.769714355469	-1360.296142578125	-397.6358947753907	738.6441040039064	-1145.045166015625	-382.7006835937501	667.2752685546876	-1181.363891601563	nan	nan	nan	0.249873623251915	917.4870605468752	-734.5543212890626	-109.9340515136719	849.261169433594	-538.3861694335939	-131.721923828125	805.4299316406252	-547.5040283203126	-156.7344665527344	821.3739013671877	-495.2525939941407	-215.1407623291016	780.2498168945315	-472.0774841308595	-270.2801818847657	851.0277099609377	-473.1717834472657	-446.7058715820314	731.8288574218751	-669.4510498046876	-422.2785949707032	658.0894775390626	-650.9254760742189	nan	nan	nan	nan	nan	nan	nan	nan	nan	-488.6525878906251	775.5593261718752	-918.854919433594	-512.3963623046876	765.7194213867189	-949.4569091796877	-523.5391235351564	762.5866699218751	-895.6136474609377	-317.6478271484376	567.0146484375001	-1194.659912109375	-292.4191589355469	604.9434204101564	-1177.080200195313	-287.5105285644532	518.4737548828126	-1213.4462890625	-151.9552459716797	467.8977355957032	-1243.840576171875	-107.6887130737305	422.9901123046876	-1122.542114257813	-199.6110534667969	258.2305908203126	-1185.336181640625	-271.6097717285157	252.1490783691407	-1242.937622070313	-241.1312561035157	229.7039184570313	-1217.608764648438	-285.2113037109376	164.7471771240235	-1182.55712890625	-407.5359802246095	107.0750961303711	-1206.645263671875	-460.7949829101564	51.33530807495119	-1147.910400390625	-250.4692840576172	54.00709152221681	-1203.052490234375	-263.2193908691407	60.46266937255861	-1243.686279296875	-356.6363220214844	94.67953491210939	-1134.52783203125	-319.4363403320313	524.8428344726564	-622.0321655273439	-251.5047912597657	543.2255859375001	-607.2421264648439	-236.0135498046876	570.8981323242189	-620.2700805664064	-195.2942657470704	484.1766662597657	-593.7901611328126	-160.1539306640625	447.846649169922	-584.0210571289064	-106.2661819458008	425.9476623535157	-700.2489624023439	-169.8164825439453	317.1524963378907	-596.0499267578126	-274.3931579589844	286.5571594238282	-588.5042724609376	-236.117660522461	259.9218444824219	-598.9930419921876	-242.8602752685547	216.5181274414063	-638.0452880859376	-400.6954650878907	99.74006652832034	-631.2534179687501	-349.6873168945313	86.59690856933595	-706.4075317382814	-455.4955139160157	49.33505630493165	-696.7063598632814	-246.5962066650391	58.4262161254883	-605.7117309570314	-263.2916259765626	61.20727539062501	-571.7916259765626	-295.7637023925782	43.2086296081543	-531.0512084960939	-398.5816345214845	570.3516235351564	-1168.3271484375	
510	2.545	61.07807922363283	1191.032348632813	-916.0908813476565	-80.66882324218751	1082.7998046875	-982.8377685546877	-88.44599914550783	1084.995483398438	-838.223083496094	-142.7388153076172	1031.53173828125	-908.935485839844	-384.9737854003907	837.9897460937502	-915.2498168945315	-34.55095672607423	876.365905761719	-902.330017089844	-21.21409988403321	934.7165527343752	-1077.125244140625	-96.31642150878909	870.344421386719	-1270.080200195313	-106.4431457519532	823.150817871094	-1273.592651367188	-127.841781616211	844.1658935546877	-1325.248779296875	-172.846176147461	799.8648071289065	-1364.092041015625	-234.9555053710938	861.9387207031252	-1360.202392578125	-397.9054260253907	738.8638916015626	-1144.954345703125	-382.7569274902344	667.4183349609376	-1181.276000976563	nan	nan	nan	0.1257865279912949	917.630554199219	-734.4895629882814	-110.0065383911133	849.2800292968752	-538.3182983398439	-131.8080596923828	805.4713134765627	-547.4495849609376	-156.7769012451172	821.4006958007815	-495.2056884765626	-215.1701049804688	780.287048339844	-472.001434326172	-270.3764038085938	851.000427246094	-473.0484619140626	-446.915252685547	731.9096679687501	-669.3939208984376	-422.4139709472657	658.1942749023439	-650.8763427734376	nan	nan	nan	nan	nan	nan	nan	nan	nan	-488.7787170410157	775.8514404296877	-918.7573242187502	-512.6586914062501	765.9201660156251	-949.316833496094	-523.6595458984376	762.7340698242189	-895.4951782226565	-317.6165771484376	567.0063476562501	-1194.499633789063	-292.5872192382813	605.0182495117189	-1177.008422851563	-287.6174011230469	518.6384887695314	-1213.339111328125	-152.1698455810547	468.0765686035157	-1243.745361328125	-107.9173278808594	423.0536193847657	-1122.36572265625	-199.7017364501954	258.2678527832032	-1185.237670898438	-271.6733703613282	252.0687866210938	-1242.832885742188	-241.1326599121094	229.636215209961	-1217.659790039063	-285.2844848632813	164.7789611816407	-1182.567260742188	-407.6780700683595	107.0955200195313	-1206.626220703125	-460.8028869628907	51.32874679565431	-1147.947387695313	-250.4953155517579	53.99992752075197	-1203.05078125	-263.1844482421876	60.47766494750978	-1243.645263671875	-356.6896667480469	94.64351654052736	-1134.478881835938	-319.5275268554688	524.9721069335939	-622.0539550781251	-251.6088867187501	543.2753295898439	-607.2371215820314	-236.0206451416016	571.0164794921876	-620.3242797851564	-195.3076782226563	484.2245178222657	-593.9136962890626	-160.2092437744141	447.8845520019532	-584.1125488281251	-106.2386932373047	425.9883422851564	-700.3844604492189	-169.8960418701172	317.1421508789063	-596.1768798828126	-274.4357910156251	286.6029052734376	-588.5935668945314	-236.1522064208985	259.9038391113282	-599.0770874023439	-242.9413757324219	216.3660736083985	-638.1660156250001	-400.6903686523439	99.7421798706055	-631.2435913085939	-349.6575927734376	86.51608276367189	-706.3992309570314	-455.4547119140626	49.25386428833009	-696.7316284179689	-246.5834350585938	58.43900680541994	-605.7009887695314	-263.2955932617188	61.25728988647462	-571.7907104492189	-295.7593994140626	43.23815536499024	-531.0568237304689	-398.7310791015626	570.4039916992189	-1168.221435546875	
511	2.55	60.96480178833009	1191.138061523438	-915.9480590820315	-80.75966644287111	1083.145141601563	-982.7498168945315	-88.62342071533205	1085.150634765625	-838.1641235351565	-142.9633483886719	1031.7587890625	-908.8118896484377	-385.1380615234376	838.1531982421877	-915.184997558594	-34.68521118164063	876.4695434570315	-902.179626464844	-21.33465003967286	934.853698730469	-1077.055786132813	-96.59527587890628	870.6158447265627	-1270.085815429688	-106.7548446655274	823.4024658203127	-1273.457397460938	-128.161361694336	844.388610839844	-1325.2021484375	-172.9740447998047	800.0895996093752	-1363.9404296875	-235.1993560791016	862.1915283203127	-1360.10498046875	-398.1057434082032	739.0184936523439	-1144.85595703125	-382.9397583007813	667.5493164062501	-1181.057495117188	nan	nan	nan	-0.07620374113321306	917.795349121094	-734.3756713867189	-110.0567016601563	849.2993774414065	-538.2413940429689	-131.8246154785157	805.500183105469	-547.3791503906251	-156.8581085205078	821.449890136719	-495.1378173828126	-215.2570800781251	780.2227783203127	-471.8887634277345	-270.4290466308594	850.984558105469	-472.9050903320314	-447.0209350585939	731.9937744140626	-669.2435913085939	-422.5008544921876	658.2911987304689	-650.8297119140626	nan	nan	nan	nan	nan	nan	nan	nan	nan	-489.0047607421876	776.0354614257815	-918.6311035156252	-512.9605712890626	766.1744384765626	-949.101501464844	-523.8347167968751	762.9564208984376	-895.3628540039065	-319.2407226562501	567.5462646484376	-1194.8095703125	-293.9958801269532	605.4868774414064	-1177.3212890625	-287.7935791015626	518.6587524414064	-1213.206909179688	-152.3200225830078	468.1755371093751	-1243.615600585938	-108.0913925170899	423.2585449218751	-1122.26806640625	-199.9524536132813	258.4158020019532	-1184.968994140625	-271.7698364257813	252.0886230468751	-1242.815307617188	-241.7225646972657	229.6125640869141	-1217.13720703125	-285.2975158691407	164.7691040039063	-1182.484741210938	-407.6858215332032	107.0351333618164	-1206.60791015625	-460.8179931640626	51.22034072875978	-1147.911865234375	-250.5336608886719	54.04013824462892	-1203.061767578125	-263.2164001464844	60.42963027954103	-1243.686645507813	-356.7083435058594	94.51763153076173	-1134.459838867188	-319.5672607421876	525.0661621093751	-622.0518188476564	-251.6966094970704	543.3187255859376	-607.2906494140626	-236.1016540527344	571.0855712890626	-620.3406372070314	-195.3740386962891	484.2490234375001	-593.9700927734376	-160.2583312988282	447.9723510742189	-584.2073974609376	-106.3515167236328	426.0506896972657	-700.4985351562501	-169.9322967529297	317.2167358398438	-596.2597045898439	-274.4453735351563	286.5609436035157	-588.6571044921876	-236.1849060058594	259.9908752441407	-599.1463012695314	-242.9386749267579	216.6222839355469	-638.1730346679689	-400.6751708984376	99.73020935058597	-631.2434082031251	-349.6534118652344	86.47069549560548	-706.4300537109376	-455.5174865722657	49.305965423584	-696.6950683593751	-246.5759735107422	58.50005340576173	-605.7155151367189	-263.3057556152344	61.2409019470215	-571.8129272460939	-295.7621459960938	43.21434402465821	-531.0549926757814	-398.9665832519532	570.4725952148439	-1168.106811523438	
512	2.555	60.7221031188965	1191.49609375	-915.8487548828127	-80.9412078857422	1083.4140625	-982.6170043945315	-88.76927185058595	1085.377319335938	-838.0997314453127	-142.9069976806641	1031.339233398438	-908.7689208984377	-385.3622131347657	838.340759277344	-915.0904541015627	-34.8965072631836	876.6619262695315	-902.1397705078127	-21.51228523254395	935.084411621094	-1076.977416992188	-96.82450866699222	870.772399902344	-1269.881591796875	-107.0709381103516	823.7263183593752	-1273.345336914063	-128.3259582519532	844.5698242187502	-1325.150146484375	-173.1729125976563	800.4138793945315	-1363.747802734375	-235.4469146728516	862.3885498046877	-1359.982421875	-398.3813476562501	739.2047119140626	-1144.759399414063	-383.2080688476563	667.7268066406251	-1180.939208984375	nan	nan	nan	-0.1667873561382294	917.8662109375002	-734.3328247070314	-110.1091232299805	849.3938598632815	-538.1685180664064	-131.871337890625	805.552185058594	-547.3826904296876	-156.9306182861328	821.4795532226565	-495.0667724609376	-215.3027343750001	780.2527465820315	-471.8139648437501	-270.5101013183594	851.0430908203127	-472.7869567871095	-447.1479797363282	732.1455078125001	-669.1303710937501	-422.6264953613282	658.3871459960939	-650.7962036132814	nan	nan	nan	nan	nan	nan	nan	nan	nan	-489.1601562500001	776.3227539062502	-918.5378417968752	-513.1691894531251	766.3580322265626	-948.9720458984377	-524.2163085937501	763.1126708984376	-895.2363891601565	-319.4221191406251	567.6983032226564	-1194.7177734375	-294.2350158691407	605.6542968750001	-1177.210205078125	-288.0192565917969	518.7722778320314	-1213.131713867188	-152.5855712890625	468.2468566894532	-1243.488647460938	-108.300521850586	423.3440551757814	-1122.1328125	-200.0994262695313	258.5546875000001	-1184.919189453125	-271.8431091308594	252.1238861083985	-1242.774780273438	-241.6501922607422	229.5819549560547	-1217.217529296875	-285.2004089355469	164.7923736572266	-1182.275390625	-407.8865661621095	107.0885620117188	-1206.609130859375	-460.7951965332032	51.1910972595215	-1147.915649414063	-250.5626220703126	54.05618286132814	-1203.064331054688	-263.2147827148438	60.44309234619142	-1243.669677734375	-356.7056274414063	94.53979492187501	-1134.45263671875	-319.6886901855469	525.1119995117189	-622.0940551757814	-251.7571105957032	543.4389038085939	-607.2746582031251	-236.1377105712891	571.2057495117189	-620.3943481445314	-195.4218292236329	484.2131958007814	-594.0913085937501	-160.2906646728516	447.9954528808595	-584.3220825195314	-106.3467025756836	426.0994567871095	-700.6375732421876	-169.9676971435547	317.3052368164063	-596.3082275390626	-274.4880676269532	286.6679992675782	-588.6558227539064	-236.2200164794922	260.0214538574219	-599.1931762695314	-243.0414276123047	216.4569244384766	-638.4173583984376	-400.6613769531251	99.7388610839844	-631.2546997070314	-349.6462402343751	86.52454376220705	-706.4122314453126	-455.5180969238282	49.28530502319337	-696.7202148437501	-246.5944824218751	58.4926109313965	-605.7286987304689	-263.3279724121094	61.28218841552736	-571.8144531250001	-295.7363281250001	43.23882293701173	-531.1054687500001	-399.1858215332032	570.5527343750001	-1167.951416015625	
